<?xml version="1.0" standalone="no"?>
<!DOCTYPE svg PUBLIC "-//W3C//DTD SVG 1.1//EN" "http://www.w3.org/Graphics/SVG/1.1/DTD/svg11.dtd" >
<svg xmlns="http://www.w3.org/2000/svg" xmlns:xlink="http://www.w3.org/1999/xlink" version="1.1">
<metadata>
Created by FontForge 20141024 at Tue Jan 26 16:42:32 2016
 By Jimmy Warting
</metadata>
<defs>
<font id="ControlLabIconFont" horiz-adv-x="415" >
  <font-face 
    font-family="ControlLab Icon Font"
    font-weight="400"
    font-stretch="normal"
    units-per-em="512"
    panose-1="2 11 6 3 5 3 2 2 2 4"
    ascent="409"
    descent="-103"
    x-height="350.5"
    cap-height="343"
    bbox="0 -0.166667 440 352.235"
    underline-thickness="0"
    underline-position="0"
    unicode-range="U+0020-00A0"
  />
<missing-glyph horiz-adv-x="512" 
d="M204 73q3 -22 22 -18q20 1 19 21q-2 20 -22 19q-21 -2 -19 -22zM221 257q-8 -2 -13 -8q-4 -6 -4 -19v-22v-22v-22v-21q0 -16 14 -20t23 8q4 6 4 18v21.5v22.5v21.5v22.5q-1 9 -8 15t-16 5zM14 30q0 1 0.5 4t3.5 9q2 3 4 5t3 4q9 15 18 31t18 31q8 14 13 21q9 15 18 30.5
t18 30.5q12 21 23.5 41.5t24.5 41.5q6 9 12 19.5t12 21.5q3 5 6 9.5t6 10.5q0 2 9 8q4 2 7 2.5t5 1.5h9q0 -1 2.5 -1.5t3.5 -0.5q8 -2 15 -8q0 -1 5 -9t6 -11l34 -58l34 -58q12 -20 23 -39.5t23 -38.5q0 -1 7 -13t15 -26.5t15.5 -26t8.5 -11.5q19 -22 3 -46q-4 -5 -10 -5
h-378q-6 0 -7 1q-5 5 -6 9q-2 4 -2 5q-3 6 -2 6v9z" />
    <glyph glyph-name=".notdef" horiz-adv-x="512" 
d="M204 73q3 -22 22 -18q20 1 19 21q-2 20 -22 19q-21 -2 -19 -22zM221 257q-8 -2 -13 -8q-4 -6 -4 -19v-22v-22v-22v-21q0 -16 14 -20t23 8q4 6 4 18v21.5v22.5v21.5v22.5q-1 9 -8 15t-16 5zM14 30q0 1 0.5 4t3.5 9q2 3 4 5t3 4q9 15 18 31t18 31q8 14 13 21q9 15 18 30.5
t18 30.5q12 21 23.5 41.5t24.5 41.5q6 9 12 19.5t12 21.5q3 5 6 9.5t6 10.5q0 2 9 8q4 2 7 2.5t5 1.5h9q0 -1 2.5 -1.5t3.5 -0.5q8 -2 15 -8q0 -1 5 -9t6 -11l34 -58l34 -58q12 -20 23 -39.5t23 -38.5q0 -1 7 -13t15 -26.5t15.5 -26t8.5 -11.5q19 -22 3 -46q-4 -5 -10 -5
h-378q-6 0 -7 1q-5 5 -6 9q-2 4 -2 5q-3 6 -2 6v9z" />
    <glyph glyph-name="glyph1" horiz-adv-x="0" 
 />
    <glyph glyph-name="glyph2" horiz-adv-x="170" 
 />
    <glyph glyph-name="glyph3" horiz-adv-x="0" 
 />
    <glyph glyph-name="space" unicode=" " horiz-adv-x="512" 
 />
    <glyph glyph-name="uni00A0" unicode="&#xa0;" horiz-adv-x="512" 
 />
    <glyph glyph-name="zero" unicode="0" horiz-adv-x="436" 
d="M128 225q3 14 -13 17q-15 3 -17 -13t13 -17q15 -2 17 13zM216 292q0 -6 5.5 -5.5t8.5 0.5h10h10q20 -2 34 -7q15 -7 26 -14l2.5 -2.5t3.5 -1.5q9 -8 12.5 -4.5t2.5 7.5q-2 6 -10 11q-6 5 -12 8q-16 9 -28 13q-28 7 -55 4q-12 0 -10 -9zM105 291q0 1 -2 4t-2 5l-15 23
q-3 4 -5 8t-3 10q0 7 3 8l11 3q13 1 30 -10.5t29 -18.5q1 -1 3.5 -3t4.5 -2q10 8 25 11q48 12 97 1q32 -7 55.5 -21t41.5 -31l6 -7q5 -5 8 -11q24 -41 19 -87q-5 -38 -30 -70l-8 -9l-6.5 -6.5t-7.5 -5.5q0 -3 2 -6t3 -5q3 -6 8.5 -16t5.5 -14q0 -10 -14 -16q-6 -3 -11 -5
t-10 -5q-6 -3 -20 -9q-5 -3 -11.5 -4.5t-11.5 -0.5q-4 2 -7 8q-1 3 -2.5 5t-1.5 5q-2 3 -6 11t-4 10h-90q-1 -1 -3 -5l-11 -24q-4 -7 -8 -7q-6 -2 -21.5 4t-21.5 9q-6 2 -11 4t-10 5q-6 1 -10 4t-1 12q2 5 3.5 10t4.5 11l7 21l-12 9q-2 2 -3.5 3t-2.5 3l-25 31h-11h-10
q-13 0 -15 7q-1 3 -0.5 30t0.5 33q0 3 -0.5 10.5t0.5 10.5q1 6 15 6h10.5h10.5q0 1 0.5 3.5t2.5 6.5q3 7 6.5 13.5t7.5 12.5q1 1 8.5 10.5t10.5 12.5z" />
    <glyph glyph-name="one" unicode="1" horiz-adv-x="381" 
d="M192 252v-17q9 1 20 10q1 0 2 1.5t3 2.5v-73h19v102h-15q-3 -8 -10.5 -14.5t-13.5 -9.5q-3 0 -5 -2zM246 103q15 0 25 11q3 4 4.5 8.5t13.5 7.5q4 1 9.5 2t10.5 2q0 -1 6.5 -13t14 -26.5t14 -26.5t7.5 -13l12 -22l-42 5l-15 -38v0v0l-30 52q-4 6 -8 12.5t-7 12.5
q-1 2 -8 13t-7 13zM143 2l-23 35l-43 -4q0 1 5.5 12t7.5 14l27 53q0 2 6 13.5t7 12.5q1 -5 7.5 -6t9.5 -1q13 0 19 -7l5 -5q4 -6 5 -7q3 -7 16 -8l-3 -6q-1 -2 -2 -3.5t-1 -2.5q-2 -5 -6 -13q-8 -16 -16 -32.5t-15 -31.5q-2 -4 -3 -7l-3 -6v0v0zM101 256q-1 8 3 12t10 8
q10 6 13 18q3 8 2 13.5t6 11.5q7 7 19 5t24 17q8 13 16 10.5t16 -5.5q12 -6 26 1q6 3 11.5 4.5t12.5 -3.5l1 -1q3 -3 3 -4t3 -4q6 -11 18 -14q8 -3 13.5 -2t11.5 -5q7 -9 5.5 -20.5t16.5 -22.5q13 -9 10 -17.5t-5 -14.5q-6 -15 -1 -23.5t6 -15.5q1 -8 -3.5 -12t-8.5 -7
q-11 -7 -14 -18q-3 -9 -2 -14.5t-5 -10.5q-8 -8 -20.5 -6t-22.5 -16q-9 -15 -17.5 -11.5t-14.5 6.5t-14 3q-12 -1 -19.5 -7t-16.5 2q-6 4 -10 11.5t-16 11.5q-9 2 -14 1.5t-11 5.5q-7 7 -5 19t-16 24q-14 8 -10 21q1 6 5.5 14.5t-1.5 23.5q-2 3 -3.5 5t-1.5 6z" />
    <glyph glyph-name="two" unicode="2" 
d="M308 239l-142 -141l9 -8q7 8 16.5 17t18.5 18l97 97q2 2 4.5 4t4.5 5zM90 23l-36 -13l11 32l0.5 0.5t0.5 1.5l1 2zM128 86l2 -2q3 -4 18.5 -19t15.5 -16l-62 -22l-31 31q0 3 11 31.5t11 30.5q1 0 2 -1q3 -4 17 -18.5t16 -14.5zM358 324q0 -1 8 -9t11 -9q3 -4 8 -9.5
t5 -14.5t-5 -15t-8 -9l-19 -18q-2 0 -19 17.5t-19 19.5l-32 32l-5 5l8 8l10 10l2 2l3 3q3 3 6 5.5t11 4.5q7 0 12 -2.5t9 -5.5q1 -3 3 -4.5t4 -3.5q1 -1 3.5 -4t3.5 -3zM359 114v-1l9 -9q3 -4 14.5 -15.5t13.5 -12.5l-76 -76l-25 25q0 1 15.5 16t17.5 17q-3 5 -8 8
q-2 -1 -17 -16.5t-16 -16.5q-2 1 -4 3t-3 4l-12 13q-2 1 -7 6l17 17t16 17l-7 7l-33 -33l-26 25l75 75v0.5v0.5q1 0 4 -3l50 -50q0 -1 2 -1zM69 251l-25 25l76 76q1 -2 13 -14t16 -15q1 -2 2 -3.5t3 -2.5l41 -40l5 -5l6 -6l6 -6q-1 -1 -12.5 -13t-26 -26t-26 -25.5
l-11.5 -11.5l-25 25l33 34l-7 7q-2 0 -5 -3.5t-4 -4.5l-13.5 -13.5l-11.5 -11.5q-1 0 -9.5 8.5t-9.5 10.5q-2 1 -4 3t-3 4q0 1 16 16t17 17q-3 5 -8 8q-2 -1 -4.5 -4t-3.5 -4l-14 -14zM150 114l8 -8l141 142l-8 8l-8.5 -8.5t-8.5 -9.5l-115 -115q-6 -3 -9 -9zM275 272
l-142 -141l8 -8l142 141zM108 121l-9 10l176 176l56 -57q3 -3 10 -9.5t9 -9.5q0 -1 -21.5 -22.5t-22.5 -21.5l-23.5 -23.5l-44.5 -44.5l-44 -44l-20 -20q-2 1 -15 15t-16 16v0v0q-1 1 -18 17.5t-17 17.5z" />
    <glyph glyph-name="three" unicode="3" horiz-adv-x="462" 
d="M307 188l-1 1q-1 1 -2 1q-28 22 -57 29q-38 6 -76 -13t-66 -46l-6 -6q-2 -1 -18 8.5t-19 11.5v-60q11 -6 10 -20t-10 -17l11 -41h-32l11 41q-9 6 -9 18q0 10 4.5 13.5t4.5 5.5v65q-1 0 -7 4q-5 3 -24.5 14t-20.5 13l26.5 16t30.5 19q7 4 14.5 8.5t14.5 9.5q14 9 28.5 18
t29.5 18q13 8 28 17q7 4 14 8.5t15 9.5q7 4 14 8.5t15 9.5q0 -1 1 -1l45 -31q3 -3 24.5 -17.5t46 -31.5t45 -31t22.5 -14l26 -18h-1v0l-93 -52q-1 0 -2 -0.5l-1 -0.5q0 -1 -1.5 -1.5t-1.5 0.5v0v0q-1 2 -4 5q-1 1 -3 5q-6 5 -8.5 7.5l-8.5 8.5t-9 8zM224 79q-29 0 -50 -5
q-8 -3 -21.5 -9t-13.5 -15q0 -11 14.5 -16.5t21.5 -6.5q47 -12 95 0q8 1 21.5 7t14.5 15q1 10 -13 16l-21 9q-25 5 -48 5zM310 154l6 -7q5 -5 7 -9v-16v-33v-33.5v-17.5l-9 -8q-8 -6 -14.5 -10t-15.5 -7q-23 -11 -47 -12q-27 -1 -57 4t-48 25l-4 4q-3 3 -3 6v98q0 1 3 4t4 5
q11 14 37 27q22 10 47 12q18 0 37.5 -4t36.5 -14q4 -3 7.5 -5t7.5 -5q2 -4 5 -4z" />
    <glyph glyph-name="A" unicode="A" 
d="M88 352h264q18 0 31 -13t13 -31v-264q0 -18 -13 -31t-31 -13h-264q-18 0 -31 13t-13 31v264q0 18 13 31t31 13zM280 230l46 -96l26 -54v195q0 13 -10 23t-23 10h-198q-14 0 -23.5 -10t-9.5 -23v-169l27 55l58 122l59 -122l7 -16z" />
    <glyph glyph-name="B" unicode="B" horiz-adv-x="387" 
d="M126 0q-1 0 -1 1v278v9v9h15h32.5h32h15.5v-20.5v-41v-41.5v-19q0 -1 0 -0.5v0.5l24 17l6 4t6 5l12 9q1 0 5 -4q6 -6 14 -11.5t15 -11.5l12 -8v30v16.5v31v30v14.5q3 1 26 0.5t29 0.5v-1q-1 -8 -0.5 -17t0.5 -16v-101v-68.5v-67.5q-2 -13 -12 -22q-8 -5 -29 -5h-135h-34
h-33zM233 201v110h68v-22v-36.5v-35v-16.5l-29 24q-2 1 -4 3q-1 0 -8.5 -6t-8.5 -7zM112 297v-297h-11t-10 1t-7 3q-12 7 -12.5 19t-0.5 24v262v15t4 14l0.5 1t1.5 2q5 5 9 7q6 3 14 3.5t16 0.5h219q7 0 12.5 -1t12.5 -7q4 -4 5 -6h-44h-43h-173q-13 0 -17 -5q-3 -4 -3 -19
q0 -11 7 -15q4 -3 9 -2.5t11 0.5z" />
    <glyph glyph-name="C" unicode="C" 
d="M194 175q-4 0 -15.5 -3t-14.5 -6q-4 -4 -6.5 -15t-2.5 -15h116q0 6 -3.5 16t-6.5 14q-3 3 -14.5 6t-14.5 3l-1.5 -1.5l-0.5 -0.5q-3 -3 -8.5 -8t-8.5 -5t-6.5 2.5t-4.5 3.5zM66 27q19 0 19 20q0 19 -18 21h-9q-1 1 -0.5 4.5t0.5 5.5v1v1v1q12 0 19 5q8 6 7 16t-7 16
q-6 4 -10.5 3.5t-8.5 0.5v13h5.5t5.5 1q12 3 15 15t-7 21q-6 3 -10.5 3t-8.5 1v13h7.5t10.5 4q12 8 7.5 22.5t-17.5 14.5h-8v13h8q13 0 17.5 14t-7.5 23q-5 3 -9 3t-9 1q-1 2 -0.5 20.5t0.5 21.5q1 18 18 24q6 2 20 2h22h127q2 0 15 -0.5t28 -0.5h27.5t14.5 1q1 -2 4 -2
t9 -3q6 -5 8 -9h-129.5h-128.5q-13 0 -16 -3q-7 -5 -6 -12.5t8 -10.5q3 -2 8 -1.5t10 0.5h128.5h129.5v-285q-2 -19 -18 -24q-6 -2 -21 -2h-22h-195q-11 0 -19 0.5t-15 8.5q-7 7 -7 16v0.5v1.5h8zM396 243v-40h-1v0q-2 -1 -14 -0.5l-12 0.5q-1 0 -1 19t1 21h27zM50 162h4h6
q7 0 8 -1q3 -3 2.5 -7.5t-4.5 -4.5h-6h-4q-6 0 -9 1q-3 2 -3 6.5t6 5.5zM50 216h4h6q7 0 8 -1q3 -3 2.5 -7.5t-4.5 -4.5q-3 -1 -6 -0.5t-4 0.5q-8 0 -9 1q-3 3 -2.5 7t5.5 5zM50 270h3.5h5.5q8 0 9 -1q3 -3 2.5 -7.5t-4.5 -4.5h-5h-5q-8 0 -9 1q-4 2 -3 6.5t6 5.5zM49 54
h8.5t10.5 -1q3 -2 2.5 -6.5t-3.5 -5.5t-10.5 -1t-8.5 2q-4 2 -4 6t5 6zM49 108h9.5t9.5 -1q3 -3 2.5 -7t-4.5 -5q-3 -1 -10 -0.5t-8 1.5q-5 2 -4 6t5 6zM369 150v40h27v-40h-27zM369 257v40h27v-40h-27zM242 220q1 15 -6 27.5t-19 15.5q-9 0 -15 -3q-21 -12 -18.5 -42
t26.5 -33q13 -3 22 9t10 26z" />
    <glyph glyph-name="D" unicode="D" horiz-adv-x="394" 
d="M80 247v-246q-16 5 -16 21v248q0 -4 1 -5q-1 1 -1 5v45q0 10 8 18q7 7 17 7h4v12h65v-12h193q10 0 17 -7q8 -8 8 -18v-9q-5 13 -26 13h-192v-3h196q15 0 22 -14v-6q-6 14 -21 14h-197v-7h196q15 0 22 -14v-6q-6 14 -21 14h-197v-8h196q14 1 22 -13v-6q-7 13 -21 13h-197
v0h-65v0h-7v-7h268q14 1 22 -13v-7q-6 14 -21 14h-269q1 -1 1 -2v0h0.5h1.5h263q6 0 16 -5v0v0q8 -7 8 -13v-1v-14v-0.5v-0.5v0v-212q0 -22 -23 -22h-267v245q-2 0 -6 2zM93 319h-4q-1 0 -2 -1v0l-0.5 -1l-0.5 -1v0h7v3zM93 310h-7v-7h7v7zM93 297h-7v-8h7v8zM158 333v-7
h192q9 0 18 -7l0.5 -0.5l0.5 -0.5q-1 4 -5 10q-7 5 -13 5h-193zM93 326v7h-4q-7 0 -13 -5q-5 -5 -5 -13v-45q0 -8 5 -13q6 -5 13 -5h263q8 0 15 -5q0 -1 0.5 -2t1.5 -1v5v1q0 3 -5 7v0v0q-6 4 -12 4h-263q-5 0 -6 3v0q-3 1 -3 6v46q0 3 2 7h0.5h0.5q1 3 6 3h4zM203 54v11
h-54v59h48v11h-48v52h53v11h-65v-144h66zM237 198h-15v-144h12v123v0l54 -123h15v144h-12v-124h-1z" />
    <glyph glyph-name="E" unicode="E" horiz-adv-x="400" 
d="M374 188h-39v-182h16q23 0 23 23v159zM82 188h-6v-187q-17 5 -17 22v165v0v5v80v0v6v-1v1v47q0 9 7 18q8 8 19 8h270q11 0 18 -8q8 -8 8 -18v-10q-4 14 -27 14h-269q-2 0 -2 -1v0q-1 0 -1 -2v0h277q15 0 22 -14v-7q-6 14 -22 14h-277v-7h277q15 0 22 -14v-6q-6 14 -22 14
h-277v-8h277q15 0 22 -14v-6q-6 14 -22 14h-277v-7h277q15 0 22 -14v-7q-6 14 -22 14h-277v-0.5t1 -0.5v0q0 -1 2 -1h272q9 0 16 -5v0v0q8 -7 8 -14v-1v-14v-0.5v-0.5v0v-3v0v-2v-44v-5v0v-165q0 -23 -23 -23h-276v13h11h80h69q14 0 14 8v38q0 8 -14 8h-69h-80h-11v16h-1
l57 75l45 -56l21 27l34 -43v102h-156zM370 199v37q-1 2 -5 6q-5 3 -10 3h-269q-10 0 -16 6v-52h126l1 8q-2 -2 -6 -2q-5 0 -6 3q-3 1 -3 6q0 7 4 11q5 5 10 5q3 0 5 -2l1 1h4q-2 -6 -2 -7l-4 -23h69v0q1 0 3 2t2 3l4 22h-4l1 3h3q1 10 10 10q2 0 3 -1l-1 -3q-1 0 -1.5 0.5
l-0.5 0.5q-5 0 -6 -7h6v-3h-6l-4 -22q0 -3 -2 -5h37l1 8q-2 -2 -6 -2t-7 3q-2 2 -2 6q0 7 4 11q5 5 10 5q3 0 5 -2l2 1h3l-1.5 -4.5t-0.5 -2.5l-4 -23h53zM200 224q-1 2 -4 2q-4 0 -7 -3q-2 -4 -2 -8t1 -5t5 -1q3 0 5 1zM213 229l-3 -15v-1.5v-0.5q0 -3 4 -3q3 0 4 1l3 5
l2 14h5l-5 -24h-4l1 4q-3 -4 -9 -4q-3 0 -4 1q-2 4 -2 5v1v2l3 15h5zM249 228l-3 -14v-1.5v-0.5q0 -2 0.5 -4t0.5 -3h-4l-0.5 1t-0.5 2q-2 -2 -3 -2q-1 -1 -4 -1q-4 0 -6 2q-2 4 -2 6q0 6 4 12q5 5 10 5q6 0 8 -2zM244 225q0 1 -4 1q-3 0 -6 -3q-2 -3 -2 -10q0 -4 4 -4
q3 0 4 2q1 1 3 6zM258 208l-1 -3q-7 0 -7 5l0.5 2t0.5 5l5 22h4l-4 -20q-1 -4 -1 -8q0 -3 3 -3zM269 239l0.5 -0.5t1.5 -0.5q1 -1 1 -2q0 -2 -1 -2q-1 -1 -2 -1t-2 1q-1 0 -1 2q0 1 1 2l0.5 0.5t1.5 0.5zM262 205l4 21h-3v3h8l-5 -24h-4zM296 239l0.5 -0.5t1.5 -0.5
q1 -1 1 -2q0 -2 -1 -2q-1 -1 -2 -1q-2 0 -2 1q-1 0 -1 2q0 1 1 2l0.5 0.5t1.5 0.5zM289 205l4 21h-3v3h8l-5 -24h-4zM317 224q-1 2 -4 2q-4 0 -7 -3q-2 -4 -2 -8t1 -5t5 -1t5 1zM330 229l-3 -15v-1.5v-0.5q0 -3 4 -3q3 0 4 1l3 5l3 14h4l-4 -24h-5l1 4q-3 -4 -9 -4
q-3 0 -4 1q-2 4 -2 5v1v2l3 15h5zM350 217v-1.5v-0.5q0 -4 1 -5t5 -1t5 2v-5q-3 -1 -7 -1q-9 0 -9 10q0 5 4 11q6 4 10 4q2 0 6 -2q2 -2 2 -4q0 -5 -4 -6q-3 -3 -8 -3q-3 0 -5 2zM351 220q1 -1 4 -1q4 0 5 1q2 1 2 3q0 3 -3 3q-7 0 -8 -6zM107 241q20 0 20 -20t-20 -20
t-20 20t20 20zM107 236q-14 0 -14 -15t14 -15q15 0 15 15t-15 15zM355 345h-270q-8 0 -14 -6t-6 -13v-47q0 -7 6 -13t14 -6h272q8 0 15 -5l2 -2v4v1q0 3 -5 8v0v0q-6 4 -12 4h-272q-4 0 -7 3v0q-3 1 -3 6v48q0 4 3 7v0v0q3 3 7 3h269q10 0 19 -7l0.5 -0.5l0.5 -0.5
q-2 6 -5 10q-6 6 -14 6z" />
    <glyph glyph-name="F" unicode="F" 
d="M396 176q0 -73 -52 -124.5t-124 -51.5q-73 0 -124.5 51.5t-51.5 124.5q0 72 51.5 124t124.5 52q72 0 124 -52t52 -124zM298 176q0 -33 -23 -55.5t-55 -22.5q-33 0 -55.5 22.5t-22.5 55.5q0 32 22.5 55t55.5 23q32 0 55 -23t23 -55zM368 176q0 61 -43.5 104.5t-104.5 43.5
q-62 0 -105 -43.5t-43 -104.5q0 -62 43 -105.5t105 -43.5q61 0 104.5 43.5t43.5 105.5z" />
    <glyph glyph-name="G" unicode="G" 
d="M396 176q0 -48 -55 -80q-15 -9 -28 -13q-6 -17 -13 -29q-15 -25 -35.5 -39.5t-44.5 -14.5t-44.5 14.5t-35.5 39.5q-8 12 -13 29q-9 2 -16 5.5t-13 7.5q-25 15 -39.5 35.5t-14.5 44.5t14.5 44.5t39.5 35.5q12 7 29 13q3 7 6 14.5t7 13.5q32 55 80 55q47 0 80 -55
q3 -6 6.5 -13.5t6.5 -14.5q7 -3 14.5 -6.5t13.5 -6.5q55 -33 55 -80zM220 237q24 0 42.5 -18.5t18.5 -42.5q0 -26 -18.5 -43.5t-42.5 -17.5q-26 0 -43.5 17.5t-17.5 43.5q0 24 17.5 42.5t43.5 18.5zM278 72q-27 -6 -58 -6t-58 6l2 -4q24 -41 56 -41q31 0 56 41zM162 280
q27 6 58 6t58 -6l-2 4q-24 40 -56 40t-56 -40zM324 234q6 -27 6 -58t-6 -58l4 2q40 24 40 56t-40 56zM116 118q-6 27 -6 58t6 58l-4 -2q-40 -24 -40 -56t40 -56zM148 248q-10 -32 -10 -72q0 -42 10 -72q30 -10 72 -10q40 0 72 10q10 35 10 72q0 35 -10 72q-37 10 -72 10
q-37 0 -72 -10z" />
    <glyph glyph-name="H" unicode="H" horiz-adv-x="410" 
d="M364 329v0v0q25 -24 27 -59q0 -37 -23 -61v0v0l-173 -182v0v0q-24 -26 -59 -27q-36 0 -60 23v0v0v0v0q-26 23 -27 59q-2 34 23 61v0v0l172 182v0v0q25 25 60 27q35 0 60 -23v0v0zM341 304v0v0v0v0q-17 14 -36 13q-21 0 -36 -15v0v0l-172 -183v0v0q-14 -16 -14 -36
q1 -23 16 -35v0v0v0v0q14 -14 36 -14q21 1 36 16v0v0l172 182v0v0q14 16 13 36q0 21 -15 36z" />
    <glyph glyph-name="I" unicode="I" horiz-adv-x="445" 
d="M147 257q71 64 143.5 86t103.5 -11q30 -34 0.5 -103.5t-101.5 -133.5q-72 -66 -144.5 -87t-102.5 12t-0.5 102.5t101.5 134.5zM105 89q66 22 124 71t85 121q1 -35 -18 -68t-49 -60t-67.5 -44.5t-74.5 -19.5zM162 240q-63 -57 -90.5 -115.5t-3.5 -84.5q24 -27 85.5 -6
t124.5 78q63 56 90.5 114.5t3.5 85.5t-85.5 6t-124.5 -78z" />
    <glyph glyph-name="J" unicode="J" horiz-adv-x="347" 
d="M179 251q-7 0 -11 2q-10 5 -8 16.5t16 11.5h66h12t11 -3q6 -6 4.5 -14t-8.5 -11q-4 -2 -12 -2l1 -75q0 -5 1 -6q4 -8 10 -17q16 -28 33 -56t33 -56q4 -4 4 -10q0 -11 -7 -21q-2 -3 -7 -6.5t-10 -3.5h-164q-14 0 -22 5q-15 11 -12 29q0 3 1.5 5t2.5 5q5 9 9.5 18t9.5 18
q4 9 8.5 18t10.5 18q4 9 8.5 18t9.5 18q6 12 10 19v5v3.5v3.5l1 41q0 18 -1 27zM193 316q11 3 11 -8q3 -11 -7 -11q-10 -3 -12 8q-2 9 8 11zM233 306q11 3 11 -8q3 -11 -7 -11q-11 -3 -12.5 7t8.5 12zM233 352q15 1 17 -14q1 -16 -14 -16q-15 -2 -16 13q-2 15 13 17z
M253 130q0 -1 13.5 -24.5t15.5 -24.5l21 -37q0 -2 1 -3.5t2 -2.5q0 -1 1.5 -3.5t2.5 -2.5q2 -12 -7 -12q-2 -1 -25 -1h-52t-55 0.5t-33 0.5q-9 0 -9 10q0 1 3 7q11 22 22.5 44.5t23.5 45.5q3 7 9 10q13 7 28 -6q6 -6 11 -8q11 -6 22 3q3 2 5 4zM190 261v-13v-13v-60
q0 -3 -2 -6q-1 -3 -2.5 -4.5t-1.5 -4.5q-17 -30 -32.5 -61.5t-31.5 -61.5q-3 -7 0 -15t12 -11q3 -1 13 -1h13h14h106h13.5h13.5q9 1 15 13q1 4 0 11q0 4 -4 8l-50 85q-6 10 -12 20.5t-12 21.5q-2 4 -2 5v3v4v80h4h5q7 0 9 1q3 3 1 7q-1 2 -6 2h-76q-5 0 -6 -2q-4 -5 1 -7
q2 -1 8 -1h4.5h5.5z" />
    <glyph glyph-name="K" unicode="K" horiz-adv-x="441" 
d="M346 302q0 12 0.5 25t0.5 25l5 -4q2 -3 12.5 -14t22.5 -23l22 -22t11 -10l-55 -56q-2 -2 -10 -10.5t-9 -8.5v51h-254l-9 -3q-3 -2 -4 -6q-2 -4 -1.5 -27t0.5 -30t-2 -9l-11.5 -11.5l-11.5 -11.5l-12 -12t-11 -10v124q0 6 -0.5 11.5t2.5 11.5q3 7 10 13.5t19 6.5h285z
M348 97q10 0 13 10q0 3 0.5 26t0.5 30t2 9q3 3 23 23.5t23 21.5v-99v-25.5t-2 -22.5q-3 -8 -11 -14.5t-18 -6.5h-285q-1 -12 -1 -24.5v-24.5l-56 55q-1 1 -9.5 8.5t-8.5 10.5q33 31 65 65q1 0 2 1.5t3 2.5q4 4 5 4v-50h254z" />
    <glyph glyph-name="L" unicode="L" horiz-adv-x="452" 
d="M98 74q-1 0 -7 4t-8 5q-6 4 -13.5 9.5t-12.5 11.5q-13 12 -22.5 25.5t-14.5 31.5q-4 12 -5 18q-7 38 10.5 71t47.5 56q59 45 142.5 45.5t145.5 -41.5q70 -49 65 -119t-77 -112q-34 -21 -74 -29t-79 -4q-7 0 -11 1q-3 0 -4.5 -1t-4.5 -1q-5 -2 -17 -6q-4 -2 -19.5 -8
t-33 -13t-32.5 -12.5t-16 -5.5q3 7 21.5 40t18.5 34zM96 239q-17 0 -28 -11.5t-11 -27.5t11 -27t28 -11q15 0 26.5 11t11.5 27t-11.5 27.5t-26.5 11.5zM220 239q-16 0 -27.5 -11.5t-11.5 -27.5t11.5 -27t27.5 -11q15 0 26.5 11t11.5 27t-11.5 27.5t-26.5 11.5zM344 239
q-16 0 -27 -11.5t-11 -27.5t11 -27t27 -11q15 0 27 11t12 27t-12 27.5t-27 11.5z" />
    <glyph glyph-name="M" unicode="M" horiz-adv-x="459" 
d="M164 249h7.5t8.5 1q20 0 44 5q61 11 114 53l2 2l2 2l14 12v-282q-6 4 -9.5 7.5t-8.5 7.5q-5 3 -10 7t-9 8q-33 22 -73 33t-82 11v100q0 8 -0.5 16t0.5 17zM438 177q0 -1 -0.5 -2l-0.5 -1q-1 -4 -4 -10q-9 -14 -19 -16l-14 -3q-1 -3 -0.5 -41t0.5 -42v-11v-10
q0 -4 -0.5 -10t-1.5 -9q-4 -8 -12 -8q-4 0 -8.5 4t-6.5 7q-2 2 -2 3v301v8.5t6 6.5q8 8 13 8q11 -2 11.5 -11.5t0.5 -18.5v-104q7 -2 12 -3t13 -7q8 -7 10 -14t3 -9v-8zM33 205q1 6 2 10.5t4 12.5q1 6 2.5 10.5t4.5 10.5h103v-132h-29l3 -15h14l2 -3q0 -3 3 -14.5l3 -11.5
h-14l18 -73h-44q-4 14 -8 29t-7 30q-2 6 -4 13.5t-3 15.5q-2 5 -4 13t-3 14l-1 2h-29q-4 10 -8 21t-5 23l-24 2q-5 3 -6 8q-2 2 -2 11.5t2 12.5q1 5 6 7q3 3 10.5 3h13.5z" />
    <glyph glyph-name="N" unicode="N" horiz-adv-x="366" 
d="M124 317q0 -1 5 -9.5t6 -10.5l33 -55q3 -6 3 -5q-11 -7 -7.5 -21t9.5 -23q2 -6 10.5 -19.5t12.5 -19.5q5 -10 11 -19q5 -9 15.5 -23t19.5 -17q5 -2 13 1q0 -2 1 -3.5t2 -2.5l10 -17q14 -23 27 -46q1 -2 7.5 -12t6.5 -11q-5 -2 -6.5 -3t-7.5 -1q-18 0 -36 6t-32 16
q-7 5 -14 10.5t-13 11.5l-4 5l-2 2l-21 24q-6 7 -16 21q-9 12 -18 27.5t-15 28.5q-15 29 -25.5 62.5t-5.5 66.5q1 12 6 25t14 22l1 1l2 2q0 -3 4 -7l2 -4l0.5 -1.5t1.5 -1.5zM262 100l10 6q2 1 4 2.5t5 3.5q5 3 10 5t11 -4q2 -2 17 -28t18 -29q1 -3 5.5 -10t5.5 -9
q1 -6 -3 -12q-2 -1 -9.5 -5.5t-9.5 -5.5t-5.5 -3.5t-4.5 -2.5q-1 2 -14 23t-13 23q-4 6 -7.5 11.5t-6.5 11.5q-1 2 -7 12t-6 11zM125 331l-1 1t-1 3l8.5 5t10.5 6q4 3 10 5.5t12 -3.5q0 -2 2 -5t3 -4v-0.5t1 -0.5q6 -12 13.5 -24t14.5 -24q1 -3 6 -10.5t6 -9.5q1 -8 -3 -11
q-2 -3 -8.5 -7t-9.5 -5q-4 -2 -10 -6l-1 1q-1 0 -1 0.5v0.5l-41 70q-1 1 -3 5q-1 0 -4.5 6t-3.5 7z" />
    <glyph glyph-name="O" unicode="O" horiz-adv-x="430" 
d="M74 44q-1 2 -0.5 5t0.5 6v269q0 5 -0.5 10.5t1.5 9.5q4 8 14 8h21h22q9 0 13 -9q1 -3 1.5 -9.5t0.5 -10.5v-51v-94.5v-91.5v-42h-73zM337 76q0 4 6 10q5 2 14 2h16h16q10 0 14 -2q5 -4 7 -10v-15.5v-16.5v0h-1h-0.5h-0.5h-38.5h-32.5q0 2 -0.5 16.5t0.5 15.5zM249 162
q0 14 14 14h13.5h13.5h13.5t11.5 -2q6 -4 6.5 -9.5t0.5 -11.5v-82v-14v-13v0v0h-0.5h-0.5h-0.5h-0.5q-8 0 -39 -0.5t-32 0.5v44v45v14.5v14.5zM161 44v96v96v9t1 9q3 7 10 9q3 0 18 0.5t20 0.5q12 0 17 -2q7 -5 7 -12v-15.5v-32.5v-34.5v-20.5v-17v-35v-35v-16h-35.5h-35.5
h-2v0zM29 0v352h15v-337l366 -1v-14h-381z" />
    <glyph glyph-name="P" unicode="P" horiz-adv-x="364" 
d="M93 303l21.5 21t22.5 22t2.5 2t3.5 4h154q0 -1 2.5 -3.5t3.5 -2.5q5 -5 9.5 -10t9.5 -9l11.5 -11.5t11.5 -9.5q2 -3 2 -4v-51v-50v-101v-100h-254v303zM323 145v-120q-1 -2 -1 -1.5v0.5h-2h-76h-76h-27.5h-23.5v122h13h83h84h12.5h12.5v0v0v-1h1zM323 279v-121
q-1 -1 -1 -0.5v0.5h-0.5h-0.5h-0.5h-0.5h-50.5h-49.5q-1 0 -17 -0.5t-35 -0.5h-35t-16 1v121h42h69h65h29v0h1zM190 85h60v36h-12v-24h-36v24h-12v-36zM190 218h60v37h-12v-25h-36v25h-12v-37zM105 12h228h1h1v279h-1h-1h-228v-279z" />
    <glyph glyph-name="Q" unicode="Q" horiz-adv-x="428" 
d="M287 87v-62h12v62h-12zM103 235h234q-1 0 -5 4t-5 6q-2 1 -3 2t-2 3l-5 5l-22 23l-2 2l-10 10l-5 5q-7 7 -10 11q-8 5 -10 10q-7 -3 -12 0q-10 4 -11 13.5t5 16.5q8 8 19 4.5t12 -15.5q0 -3 -1 -7l79 -80q0 -1 1 -2t3 -2l7 -7q2 -2 5 -2h43v-37h-376v37h44q2 0 2 1
q4 3 8 8l16 16l3.5 3.5l4.5 4.5l8 8q8 8 15.5 16t16.5 16l18 19q1 1 0 2t0 7q1 10 10.5 14t18.5 -2q10 -9 5 -23q-4 -9 -13 -10h-4.5h-2.5q-1 0 -4.5 -4l-3.5 -4l-4 -4l-4 -4l-12 -12l-2.5 -2.5l-1.5 -1.5q-4 -4 -8 -8.5t-8 -7.5l-22 -22q-2 -3 -5.5 -5.5t-3.5 -4.5zM262 87
v-62h12v62h-1h-10h-1zM238 87v-62h11h1v62h-1h-11zM214 87v-62h12v62h-12zM190 87v-62h12v62h-11h-1zM165 87v-62h12v62h-1h-10h-1zM141 87v-62h12v62h-12zM299 161h-0.5h-0.5h-0.5h-0.5h-0.5h-0.5h-6h-4l1 -62h5.5h5.5h0.5h0.5v62zM262 161v-62h12v62h-12zM238 161v-62h1h2
h9v62h-12v0v0zM214 161v-62h5.5h6.5v32v30h-7h-5zM202 161h-2h-1h-6h-3v-62h2.5h3.5h2.5h3.5v62zM165 161v-62h12v62h-12zM141 161v-62v0h1h5h6v62h-5h-6h-1zM53 185h334q-1 -3 -11 -34t-10 -33q-9 -25 -16.5 -50.5t-14.5 -49.5q-4 -12 -8 -15t-9 -2.5t-10 0.5
q-23 -1 -45 -1h-43h-44.5h-43.5h-11t-9 2q-4 3 -7 15q-3 8 -5.5 16.5t-5.5 17.5q-5 16 -10.5 33t-9.5 34q-3 8 -5.5 16.5t-5.5 17.5q-1 1 -5.5 16t-4.5 17z" />
    <glyph glyph-name="R" unicode="R" horiz-adv-x="429" 
d="M392 155l-146 -71q0 6 -3 9l-15 44q-2 4 -3.5 8.5t-2.5 9.5l141 67zM223 0v128l2.5 -7.5t2.5 -6.5l15 -41l128 64v-68q-19 -10 -37 -17q-9 -5 -18.5 -9.5t-18.5 -7.5q-9 -5 -19 -9.5t-18 -8.5q-6 -3 -13.5 -6.5t-13.5 -6.5q-8 -3 -10 -4zM70 69v68l19.5 -10t43 -22
t43 -22t21.5 -10q0 2 2 6.5t3 7.5l13 34l1 3t2 4v-128q-2 0 -9 3.5t-9 5.5q-5 1 -9.5 3.5t-9.5 4.5q-12 6 -19 9q-5 2 -9.5 4t-8.5 5q-5 2 -9.5 3.5t-8.5 4.5l-54 25q-3 0 -2.5 0.5zM222 293l47 59l140 -75l-42 -52q-2 -1 -2.5 -2t-1.5 -1q-3 0 -17 7.5t-18 10.5zM54 155
l25 67l140 -67l-25 -71zM219 293l-140 -71l-12 14q-3 3 -6 6.5t-6 7.5l-21 25q-1 0 -1.5 0.5l-0.5 0.5l-1 2l11 5.5t24 12.5t24 12.5t12 6.5l11 5.5t24 12.5t24 12.5l13 6.5q0 -1 2.5 -4l2.5 -3l17 -22q2 -3 12 -16t11 -14z" />
    <glyph glyph-name="S" unicode="S" horiz-adv-x="416" 
d="M241 178l-1 1l-20 -21q2 -9 2 -13q0 -3 -2 -9q-2 -5 -5 -8q-7 -8 -17 -8q-11 -2 -18 4q-11 5 -12 18q-2 5 0 10q0 4 4 10q5 10 18 12q3 1 6 1q4 3 14 13q2 2 4.5 4t5.5 5q-5 2 -13 4q-10 2 -22 1q-18 -3 -30 -17q-10 -12 -12 -21v0q-4 -11 -2 -26q3 -18 18 -31
q9 -8 18 -10q8 -4 21 -4q12 1 19 5q14 5 25 21q9 15 8 32q0 10 -4 18q-1 3 -5 9zM195 231q24 0 45 -14q1 1 3.5 4t5.5 6l9 9l9 9q-13 9 -34 18q-23 6 -46 5q-17 -2 -33 -8q-9 -3 -16 -7.5t-13 -8.5l-3 -3l-2 -2q-4 -4 -6 -5q-20 -22 -26 -41q-8 -20 -8 -47q1 -21 7 -34
q6 -18 16 -29l10 -12q1 -1 1 -2q1 0 3 -2v-0.5t1 -0.5q0 -1 0.5 -1.5t1.5 -0.5q3 -3 5 -4q6 -4 7 -5q15 -11 32 -15q13 -5 34 -5q13 0 25 3q5 1 10.5 2.5t11.5 4.5q15 7 27 18l3 2l7 7l0.5 0.5l0.5 0.5l0.5 0.5l0.5 0.5q3 3 5 6.5t5 6.5q2 3 4 7t5 8q9 20 11 48q0 23 -9 46
q-6 12 -8 17q-6 8 -10 12l-5.5 -5.5l-4.5 -4.5l-2.5 -2.5l-0.5 -0.5v0l-13 -13q2 -4 4 -6q13 -21 13 -45q0 -20 -10 -40q-13 -20 -28 -30q-20 -13 -45 -13q-33 0 -58 25q-24 24 -24 58q0 28 15 48q11 15 30 25v0v0q18 10 37 10zM350 283q-7 0 -6 1l-32 -34l4 -4v0v0
q17 -25 24 -45q9 -24 9 -49q0 -63 -45 -108q-44 -44 -107 -44t-107 44q-45 45 -45 108q0 31 12 58q17 42 57 68q37 25 84 25q30 0 57 -11q12 -6 23 -12q3 -3 7 -5.5t7 -4.5q3 3 10 9.5t12 12.5l3.5 3.5l2.5 2.5l0.5 0.5l0.5 0.5h0.5h0.5v0v0v0v0.5v1.5v1.5v4.5v0.5v0.5v2v2
v1v0v0v0.5v1.5v0v0q1 3 4 5l0.5 0.5t0.5 1.5q2 0 2 2v0h1l8 10v0v0.5v0.5l2 2l1 1l2 2l0.5 0.5l1.5 1.5v0q2 2 2 3l0.5 0.5l0.5 0.5l1.5 1.5l2.5 2.5q2 2 5 2q7 0 7 -7v-22l23 1q2 0 4 -2q6 -4 2 -10q-1 -1 -5 -4.5t-7 -6.5t-4 -3q0 -1 -2 -3q-1 0 -3 -2v0v0q-3 -3 -7 -6.5
t-7 -3.5h-3.5h-4.5zM322 299v0v0v0z" />
    <glyph glyph-name="T" unicode="T" horiz-adv-x="381" 
d="M226 124v-0.5v-0.5v-55h25zM226 0h-11v57h-31q-1 -2 -5.5 -12.5t-5.5 -13.5q-1 -1 -3 -4.5l-2 -3.5h-22l46 101h-17.5h-34h-34.5t-17 1v13v29v29v14v41v42q0 2 1 2h260q1 -1 1 -3q-1 -9 -1 -35.5v-55.5v-52v-24q-3 -1 -12.5 -0.5t-12.5 0.5h-38.5h-37.5q2 -7 5 -13.5
t6 -12.5l34 -76h-22q1 0 -3 4l-0.5 1.5t-0.5 2.5q-2 3 -4 9q-3 3 -4.5 7.5t-3.5 9.5h-30v-57v0v0zM351 329q7 -1 9.5 -7t-0.5 -11q-4 -6 -10.5 -5.5t-13.5 0.5h-176h-38.5t-35.5 1q-9 2 -8.5 12t13.5 10h59h59q0 3 -0.5 8.5t1.5 8.5q1 2 5 4q2 1 3 1t4 1q1 -2 3.5 -3t5.5 -4
q0 -3 0.5 -8t0.5 -8h119zM189 68q0 1 3 6.5t4 7.5q1 3 2.5 7t3.5 8l10 21q0 6 3 6v-56h-26zM260 170v-11h56v11h-56zM248 170h-11v-11h1h-0.5t0.5 0h11v10q0 1 -1 1zM260 193v-12h1h54h1v12h-56zM237 193v-12h12v12h-12zM260 215v-11h1h54h1v11h-56zM237 215v-11h12v11h-12z
M214 215h-45v46q-24 -1 -36.5 -18t-7.5 -38q2 -13 12 -22q20 -21 48.5 -10t28.5 42zM260 238v-11h56v11h-56zM237 238v-11h11q1 0 1 2v1v2v2.5v3.5h-6.5h-5.5zM260 261v-12h1h54l1 1v11h-56zM248 261h-11v-11q0 -1 5.5 -1t6.5 1v1.5v3.5v5v0v0z" />
    <glyph glyph-name="U" unicode="U" horiz-adv-x="434" 
d="M50 351h36v1h4h64h3v-1h59v1h3h64h4v-1h56v1h4h40q11 0 19 -8t8 -20v-77q0 -8 -3 -14v-209q0 -24 -24 -24h-337q-25 0 -25 24v223v77v3q0 24 25 24zM346 236q-9 -21 -30 -21v0q-25 0 -31 22q-4 -10 -9 -15q-10 -10 -25 -10q-14 0 -25 10q-7 7 -9 16q-8 -23 -30 -23v0
q-24 0 -31 23q-3 -9 -9 -16q-10 -10 -25 -10t-25 10q-5 5 -9 15q-7 -22 -30 -22v0q-3 0 -5 0.5t-3 0.5v-125h337v122q-3 -1 -8 -1q-15 0 -25 10q-7 6 -8 14zM408 247v77q0 7 -6 15q-6 6 -15 6h-37v-98q0 -12 8 -20q9 -8 21 -8t20 8q9 7 9 20zM280 247v98h-58v-98
q0 -11 9 -20q8 -8 20 -8q11 0 21 8q8 8 8 20zM151 247v98h-58v-98q0 -12 8 -20q9 -8 21 -8t20 8q9 9 9 20z" />
    <glyph glyph-name="V" unicode="V" horiz-adv-x="409" 
d="M304 195q0 1 -4 6.5t-5 7.5q-1 0 -1.5 0.5t-0.5 1.5l-8 8h-0.5t-0.5 1l-13.5 9t-15.5 8q-36 13 -71.5 0t-52.5 -46q-18 -35 -9 -71.5t40 -57.5q23 -17 52 -18t55 14q10 6 14 9q9 7 14 15q22 27 22 65q-2 17 -5 27q-1 3 -3 7.5t-3 8.5q-2 4 -4 5zM250 146q9 0 10 -11
t-9 -12q-4 -1 -11.5 -0.5t-10.5 0.5q-4 0 -11 -0.5t-10 1.5q-7 3 -7 15v10.5v11.5v10.5v11.5q1 9 11 11q11 0 13 -11v0v0v-18v-18h24zM166 308q0 -1 1.5 -2t3.5 -2q1 0 3 -2q0 -1 0.5 -1.5t1.5 -0.5l5 -5q0 -2 2 -3.5t2 -2.5q-16 -3 -35 -13t-31 -20l-6 -6q-3 -2 -6 -7
q-6 -4 -12 -14l-9 -15q-2 -3 -4 -7.5t-3 -7.5q0 -2 -1 -2q-17 16 -20 35q-8 32 12 59q6 8 10 11q13 10 27 15q9 3 15.5 2.5t9.5 0.5q1 -1 4.5 -1.5t5.5 -0.5q3 0 9 -2q8 -4 15 -8zM313 320q36 0 56.5 -28.5t12.5 -60.5q-5 -16 -14 -27q-1 -2 -6 -7q-1 0 -6 10.5t-12 21.5
q-3 3 -7 9l-6 9q-5 3 -9 7t-8 7q-20 14 -40 22q-6 2 -10.5 3t-9.5 3q3 5 10 11.5t13 9.5q18 10 36 10zM206 320l-3 4q-6 10 0.5 20t18.5 7q9 -3 12.5 -12t-1.5 -16q-3 -3 -9 -6v-45q5 -1 9.5 -1.5t10.5 -0.5q7 -2 17 -5q13 -6 30 -14q4 -4 12 -10l6 -5q1 -2 3 -3l7 -9
q8 -10 14 -20q17 -34 14 -73q-4 -32 -23 -60q-2 -2 -2 -4l30 -51q-3 -2 -6.5 -4t-6.5 -3l-12 -7q-1 0 -6.5 9t-6.5 12l-9 17q-2 1 -3 2.5t-1 2.5l-8 -6q-33 -23 -74 -23q-44 0 -74 23q-6 4 -8 6q-2 -3 -6 -11l-20 -34l-25 14l31 53q-5 5 -9 13q-15 25 -17 50q-5 53 27 93
l10 12q4 3 8.5 7t9.5 8q25 17 56 21q3 1 10 1v1l0.5 0.5l0.5 0.5l-1 43l-3 1l-2 2h-1v0z" />
    <glyph glyph-name="W" unicode="W" horiz-adv-x="395" 
d="M86 230v-206h2h264h1v206h-267zM329 48h-36v37h2h18.5h15.5v-16v-18v-2.5v-0.5zM147 85v-37h-36v0v3q0 6 -0.5 18.5t0.5 15.5h14.5h19.5h0.5h0.5h1v0zM208 48h-36q-1 1 -1 3v18.5v15.5h18h19v-9.5v-8.5v-10v-9zM268 48h-36v0.5v2.5v18.5v15.5h17.5h18.5v-9.5v-8.5v-10v-9
zM293 109v37l36 -1v-36h-36zM111 110v36h36v-37zM293 170v36h36v-36h-36zM111 170v36h36v-36h-36zM232 170v36h36v-36h-36zM171 109l1 37h36v-37h-37zM232 109v37h36v-37h-36zM171 170v36h37v-36h-37zM144 352q8 0 18 -5q6 -6 7.5 -13t1.5 -16v-14t-3 -13q-9 -11 -18 -12
q-14 -2 -22 9q-5 6 -5 10.5v13.5v14t3 13q5 10 18 13zM288 351q13 2 22 -8q6 -7 6 -23v-15t-2 -13q-6 -12 -19 -13.5t-21 8.5q-6 7 -6 24v14t3 14q5 10 17 12zM111 315q0 -12 0.5 -19.5t6.5 -14.5q11 -14 28.5 -15t29.5 14q6 8 7 15.5t1 19.5h72q0 -12 1 -19.5t7 -14.5
q10 -14 29 -14q9 0 16.5 4t11.5 9q6 8 7 15.5t1 19.5h16t16 -1q11 -4 16 -17v-15.5v-15.5v-228v-15.5t-4 -12.5q-9 -10 -23 -10h-260q-16 0 -23 10q-5 6 -5 12.5v15.5v227q0 6 -0.5 16.5t1.5 15.5q3 13 16 17q4 1 15 1h17z" />
    <glyph glyph-name="X" unicode="X" horiz-adv-x="429" 
d="M269 295q0 2 -0.5 9t-0.5 10q-2 7 -10 9h-27h-30h-18t-11 -9q-1 -3 -1 -10v-9h98zM325 0v295h14h15h14h15q6 0 11 -3q4 -2 8 -6q7 -7 7 -22v-232q0 -14 -7 -22q-7 -9 -19 -10h-15h-14h-14.5h-14.5zM115 295v-295h-15.5h-13.5h-15.5h-13.5q-14 1 -19 10q-8 8 -8 22v231
q0 20 15 29q4 3 12 3h13.5h15.5h14h15zM143 0v322q0 8 2 11q4 16 22 18q3 0 24.5 0.5t28.5 0.5q6 0 27.5 -0.5t25.5 -0.5q24 -4 24 -30v-321h-154z" />
    <glyph glyph-name="Y" unicode="Y" horiz-adv-x="417" 
d="M152 299h222q24 0 24 -24v-228q0 -24 -24 -24h-6q0 -23 -23 -23h-26q-23 0 -23 23h-144q0 -23 -23 -23h-27q-23 0 -23 23h-13q-24 0 -24 24v228q0 17 18 23v0v0h0.5h1.5l249 53q13 3 14 -7t-9 -11zM165 263h10v-27h196v33h-295v-33h89v27zM344 161q18 16 0 33
q-17 16 -32 0q-19 -17 0 -33q16 -16 32 0zM344 95q17 17 0 33t-32 0q-18 -16 0 -33q16 -16 32 0zM158 220q-35 0 -58.5 -24.5t-23.5 -57.5q0 -34 23.5 -58t58.5 -24q33 0 57.5 24t24.5 58q0 33 -24.5 57.5t-57.5 24.5zM158 196q6 0 6 -5q0 -6 -6 -6t-6 6q0 5 6 5zM116 97
q-4 4 0 8q4 3 9 0q4 -4 0 -8q-5 -3 -9 0zM135 115q-3 4 0 9q4 4 8 0q3 -5 0 -9q-4 -4 -8 0zM172 153q-4 4 0 8q4 3 9 0q4 -4 0 -8q-5 -5 -9 0zM191 171q-6 4 0 8q4 6 8 0q4 -4 0 -8t-8 0zM199 97q-4 -4 -8 0q-6 4 0 8q4 4 8 0t0 -8zM181 115q-5 -3 -9 0q-3 4 0 9q4 3 9 0
q3 -5 0 -9zM143 153q-4 -6 -8 0q-4 4 0 8t8 0t0 -8zM125 171q-5 -3 -9 0q-4 4 0 8t9 0q4 -4 0 -8zM216 138q0 -6 -6 -6t-6 6t6 6t6 -6zM190 138q0 -6 -6 -6t-6 6t6 6t6 -6zM152 138v0v0v0v0v1v0v0v0v0v0v0v0v0v0v1v0v0v0v0v0v0v0v0v1v0v0h1v0v0v0v0v0.5v0.5v0l0.5 0.5
l0.5 0.5v0v0v0h0.5h0.5v0v0v0v0v1v0h1v0v0v0v0v0v0v0v0h0.5h0.5v0v0v0v0v0v0h1v0v0v0v0v0v0v0v0v0v0v0v0v0v0h1v0v0v0v0v0v0v0v0v0v0v0h1v0v0v0v0v0v0v0v0v0v-1v0v0v0v0v0v0v0h1v0v0v0v0v0v0v0v0v0v0v0v0v0h1v0v0v0v0v0v-1v0v0v0v0v0v0v0v0v0v0v0v0v0v0v0v0v0l1 -1v0v0v0v0
v0v0v0v0v0v0v0v0v0v0v0v-1v0v0v0v0v0v0v0v0v0v0v0v0v0l1 -1v0v0v0v0v0v0v0v0v0v0v0v0v0v0v0v-1v0v0v0v0v0v0v0v0v0v0v-1v0v0v0v0v0v0v0v0v0h-1v0v0v0v-1v0v0v0v0v0v0v0v0v0v0v0v0v0v-1v0v0v0v0v0v0h-1v0v0v-1v0v0v0v0v0v0v0v0v0v0v0v0v0v0v0l-1 -1v0v0v0v0v0v0v0v0h-1v0v0v0
v0v0v0v0v0v0v0h-0.5h-0.5v0v-1v0v0v0v0h-1v0v0v0v0v0v0v0v0v0h-1v0v0v0v0v0v0v0v0v0v0v0h-1v0v0v0v1v0v0v0v0v0v0v0v0v0v0v0h-1v0v0v0v0v0v0v0v0v0v0v0v0v0v0v0h-1v0v0v0v0v0v0v0v1v0v0v0v0v0v0v0v0v0v0v0h-1v0v0v0v0v0v1v0v0v0v0v0v0v0v0v0v0v0v0v0v0h-1v0v1v0v0v0v0v0v0v0
v0v0v0v0v0v0v1v0v0v0v0v0v0v0v0v0v0v0v0v0v1v0v0v0v0v0v0v0v0zM137 138q0 -6 -6 -6q-5 0 -5 6t5 6q6 0 6 -6zM158 170q6 0 6 -6q0 -5 -6 -5t-6 5q0 6 6 6zM164 138v0v0zM158 132v0v0zM158 118q6 0 6 -6t-6 -6t-6 6t6 6zM158 91q6 0 6 -5q0 -6 -6 -6t-6 6q0 5 6 5zM111 138
q0 -6 -6 -6t-6 6t6 6t6 -6z" />
    <glyph glyph-name="Z" unicode="Z" 
d="M396 143v-89v0v-31q0 -23 -25 -23h-303q-24 0 -24 23v31v13v67v9v34q0 13 9 22q10 9 22 9h22v57h9h9v-57h58v81h9h9v-81h58v81h9h8v-81h59v57h9h8v-57h23q11 0 22 -9q9 -9 9 -22v0v-34v0zM63 188q-5 -5 -5 -11t4 -12q2 -5 8 -6q6 -2 12 0q8 1 17 12q8 13 20 13
q10 0 19 -13v0v0q9 -14 15 -14q5 0 13 13l0.5 0.5l0.5 0.5q8 13 19 13t19 -13h0.5h0.5q12 -25 28 0v0v0q4 6 9 9q4 4 11 4q5 0 11 -4q5 -5 8 -9v0v0q14 -25 28 -1q0 1 1 1q8 13 19 13q10 0 19 -12q10 -12 18 -13q6 -3 12 -1q5 1 8 6q3 6 3 13t-4 11q-5 5 -12 5h-290
q-7 0 -12 -5zM381 134h-323v-67h323v67zM334 328l10 -49q0 -12 -11 -11.5t-9 11.5zM334 304l-5 -26q-1 -6 4.5 -6t5.5 6zM182 352l10 -49q0 -12 -11 -11t-9 11zM182 328l-5 -25q-1 -6 4.5 -6.5t5.5 6.5zM258 352l10 -49q0 -12 -11 -11t-9 11zM258 328l-5 -25q-1 -6 4.5 -6.5
t5.5 6.5zM106 328l10 -49q0 -12 -11 -11.5t-9 11.5zM106 304l-5 -26q-1 -6 4.5 -6t5.5 6z" />
    <glyph glyph-name="a" unicode="a" horiz-adv-x="456" 
d="M204 73q3 -22 22 -18q20 1 19 21q-2 20 -22 19q-21 -2 -19 -22zM221 257q-8 -2 -13 -8q-4 -6 -4 -19v-22v-22v-22v-21q0 -16 14 -20t23 8q4 6 4 18v21.5v22.5v21.5v22.5q-1 9 -8 15t-16 5zM14 30q0 1 0.5 4t3.5 9q2 3 4 5t3 4q9 15 18 31t18 31q8 14 13 21q9 15 18 30.5
t18 30.5q12 21 23.5 41.5t24.5 41.5q6 9 12 19.5t12 21.5q3 5 6 9.5t6 10.5q0 2 9 8q4 2 7 2.5t5 1.5h9q0 -1 2.5 -1.5t3.5 -0.5q8 -2 15 -8q0 -1 5 -9t6 -11l34 -58l34 -58q12 -20 23 -39.5t23 -38.5q0 -1 7 -13t15 -26.5t15.5 -26t8.5 -11.5q19 -22 3 -46q-4 -5 -10 -5
h-378q-6 0 -7 1q-5 5 -6 9q-2 4 -2 5q-3 6 -2 6v9z" />
    <glyph glyph-name="b" unicode="b" 
d="M220 352q72 0 124 -52t52 -124q0 -73 -52 -124.5t-124 -51.5q-73 0 -124.5 51.5t-51.5 124.5q0 72 51.5 124t124.5 52zM220 92q-14 0 -23.5 -10t-9.5 -23q0 -14 9.5 -23.5t23.5 -9.5q13 0 23 9.5t10 23.5q0 13 -10 23t-23 10zM220 326q-14 0 -23.5 -10t-9.5 -23v-132
q0 -14 9.5 -23.5t23.5 -9.5v0q13 0 23 9.5t10 23.5v132q0 13 -10 23t-23 10v0z" />
    <glyph glyph-name="c" unicode="c" 
d="M220 352q72 0 124 -52t52 -124q0 -73 -52 -124.5t-124 -51.5q-73 0 -124.5 51.5t-51.5 124.5q0 72 51.5 124t124.5 52zM123 242q0 -9 8 -17q6 -8 18 -8q17 0 25 22q8 23 17 32q11 11 31 11q17 0 30 -11q11 -10 11 -26q0 -8 -3 -15q-5 -9 -10 -12q-3 -3 -18 -17
q-7 -6 -12.5 -11.5l-9.5 -9.5q-9 -9 -13 -21q-5 -10 -5 -28q0 -13 7 -20q6 -6 17 -6q18 0 22 20q1 4 2 7.5t2 5.5q0 3 3 8q2 4 6 8q2 3 10 11q24 21 33 30q11 11 16 21q7 15 7 29q0 21 -12 39q-12 17 -33 28q-24 11 -50 11q-27 0 -53 -13q-21 -12 -34 -31q-12 -20 -12 -37z
M218 29q10 0 20 8q9 7 9 21q0 12 -9 21q-10 8 -20 8q-13 0 -21 -8q-9 -9 -9 -21q0 -14 9 -21q9 -8 21 -8z" />
    <glyph glyph-name="d" unicode="d" horiz-adv-x="418" 
d="M185 95q2 0 5 3l61 61l62 62q7 7 7 11l-5 8q-2 1 -3.5 2.5t-2.5 3.5q-3 3 -7.5 7t-7.5 4l-8 -5l-48 -48l-9 -9l-18 -18l-18.5 -18.5l-8.5 -8.5q-3 2 -12.5 11.5t-10.5 11.5q-2 2 -14 13.5t-13 13.5q-4 3 -7 2t-6 -4q-6 -5 -10 -10q-3 -2 -6 -5.5t-2 -5.5l3 -7l22 -22
l24 -24l8 -8q3 -4 5.5 -6.5t6.5 -5.5q9 -9 13 -9zM44 176q0 72 51.5 124t124.5 52l40 -5q7 -2 18.5 -6t18.5 -7q1 0 3 -2q9 -4 17.5 -10t15.5 -12l8 -8t9 -8q1 -1 2 -3q2 -2 6 -7.5t7 -7.5q19 -31 26 -61q1 -5 4 -19q4 -48 -15 -93q-4 -9 -7.5 -15t-8.5 -13q-2 -2 -3 -3.5
t-2 -2.5q-6 -8 -10 -12q-1 -2 -5 -6q-21 -21 -45 -32q-12 -6 -20 -9t-20 -6q-14 -3 -30.5 -3.5t-29.5 0.5q-7 0 -10 1l-9 3q-7 0 -17 4t-16 7q-11 5 -22.5 12t-20.5 16q-1 0 -2 0.5t-1 1.5l-8.5 8.5t-7.5 8.5q-10 11 -18 26q-4 6 -8 15t-6 15q-9 28 -9 57z" />
    <glyph glyph-name="e" unicode="e" 
d="M137 232q0 -3 5 -8q3 -4 24.5 -26t23.5 -22l-24 -24t-24 -23q-5 -5 -5 -9v-1l5 -8l13 -13q5 -5 8 -5l9 5q2 4 7 7q2 3 20.5 21.5l20.5 20.5q12 -12 24 -24.5t24 -24.5q5 -5 9 -5l8 5l13 13q5 5 5 8v1l-6 9q-1 0 -16 15.5t-18 18.5q-1 0 -7 6t-6 7q11 12 23 24l24 24
q6 6 6 9v1l-4 6l-15 16q-7 6 -14 1q-3 -3 -26.5 -27l-23.5 -24q-13 12 -26 25t-25 26q-4 3 -8 2q-2 0 -6 -4l-5 -5l-5 -5q-8 -8 -8 -13zM44 176q0 10 1 20t3 19q5 18 11 32q13 30 33 50q-1 0 3 2q6 6 13.5 12.5t16.5 12.5q3 2 5 2.5t5 3.5q6 3 16 7t18 7q9 3 22 5.5t25 2.5
h8l39 -5q3 -2 13 -4q6 -3 14.5 -6.5t15.5 -6.5q4 -3 7.5 -5.5t8.5 -5.5q5 -4 9.5 -8.5t10.5 -7.5l9 -10l10 -12q8 -12 14 -23q6 -12 10 -21.5t7 -21.5q1 -9 2.5 -19t1.5 -20l-4 -39q-2 -5 -3 -9.5t-2 -7.5q-9 -24 -22 -44q-3 -4 -6.5 -9t-6.5 -8l-4 -4q-6 -6 -16 -14.5
t-17 -12.5l-6 -4q-3 -1 -4.5 -2.5t-3.5 -1.5l-7 -3.5l-7 -3.5q-31 -13 -63 -13h-8l-39 5q-9 1 -20.5 6t-18.5 9q-9 5 -14 8t-13 10q-6 4 -14 12l-13 14q-10 12 -18 26q-22 42 -22 86z" />
    <glyph glyph-name="f" unicode="f" 
d="M220 352q72 0 124 -52t52 -124q0 -73 -52 -124.5t-124 -51.5q-73 0 -124.5 51.5t-51.5 124.5q0 72 51.5 124t124.5 52zM290 166q9 9 0 20l-11 10l-98 99q-10 10 -20 0l-11 -11q-9 -11 0 -21l88 -87l-88 -88q-9 -11 0 -21l11 -10q10 -12 20 0l98 98z" />
    <glyph glyph-name="g" unicode="g" 
d="M220 352q72 0 124 -52t52 -124q0 -73 -52 -124.5t-124 -51.5q-73 0 -124.5 51.5t-51.5 124.5q0 72 51.5 124t124.5 52zM150 166l11 -11l98 -98q10 -12 20 0l11 10q8 10 0 21l-88 88l88 87q8 10 0 21l-11 11q-10 10 -20 0l-98 -99l-11 -10q-10 -11 0 -20z" />
    <glyph glyph-name="h" unicode="h" 
d="M214 252q-31 -3 -52.5 -26.5t-18.5 -56.5q2 -31 25.5 -53t57.5 -19q30 2 51.5 26t19.5 58q-3 30 -26.5 51.5t-56.5 19.5zM217 211q15 1 25.5 -9t12.5 -23q1 -16 -9 -27t-23 -12q-15 -2 -26 8t-12 25q-2 15 7.5 25.5t24.5 12.5zM44 184q0 1 0.5 4.5t4.5 9.5q3 5 9 8
q5 4 14 4h19q0 1 1.5 6.5t3.5 9.5t3 7t4 8q-2 1 -3.5 2.5t-2.5 3.5q-5 4 -10 9.5t-7 11.5q-4 10 0 20q2 5 5 8l6 6q8 8 14 11q9 4 21 1q6 -3 10.5 -7.5t10.5 -9.5l6 -6q1 0 3 1.5t4 2.5q8 4 21 8q1 0 1.5 0.5t2.5 1.5v8.5v9.5q0 8 3 14q4 9 14 13q6 2 8 2h20q2 -2 7 -2
q18 -7 18 -27v-18q0 2 4 -2q14 -4 28 -12l5.5 5.5l6.5 6.5q6 8 15 11q10 3 21 -1q6 -3 13 -11q8 -7 11 -13q4 -11 1 -21q-3 -6 -8 -11.5t-9 -9.5l-6 -6q0 -1 3 -7q0 -3 1.5 -4.5t2.5 -3.5q4 -10 5 -16h8.5h9.5q22 0 28 -21q0 -3 1 -4v-20q-1 -1 -1 -4q0 -1 -0.5 -2l-0.5 -1
q-3 -9 -13 -15q-7 -4 -15 -3.5t-17 0.5l-3 -8q-1 -4 -4.5 -12t-5.5 -11l13 -13q2 -3 5 -6t6 -8q3 -13 -1 -21q-3 -6 -5.5 -8.5l-5.5 -5.5t-6 -6.5t-8 -4.5q-10 -5 -21 -1q-6 3 -14 11l-13 13q-5 -3 -8 -4t-7 -3q-10 -5 -16 -6l-4 -32q-3 -6 -8 -9q-6 -3 -9 -4t-4 -1h-20
q-2 0 -5.5 1t-7.5 4q-3 1 -5 3.5t-4 5.5l-3 32q-15 4 -31 13l-13 -13q-8 -8 -14 -11q-13 -4 -21 1q-6 1 -8.5 4.5t-5.5 6.5t-6 5.5t-6 8.5q-4 9 0 21q3 8 11 14l13 13q-6 7 -7 15q-3 3 -4 7t-2 9h-23.5t-18.5 12q-1 1 -2 2.5t-1 3.5q-2 6 -2 7v19z" />
    <glyph glyph-name="i" unicode="i" horiz-adv-x="407" 
d="M338 200v-200h-236v200h-50l84 76l84 76l84 -76l84 -76h-50zM180 161v-128h80v128h-80z" />
    <glyph glyph-name="j" unicode="j" horiz-adv-x="381" 
d="M100 246h239v-246h-239v246zM77 297h87v55h112v-55h87v-34h-286v34zM190 297h60v29h-60v-29zM200 215v-184h40v184h-40zM128 215v-184h39v184h-39zM272 215v-184h40v184h-40z" />
    <glyph glyph-name="k" unicode="k" 
d="M162 352h234v-78h-234v78zM162 77h234v-77h-234v77zM44 77h77v-77h-77v77zM162 214h234v-77h-234v77zM44 352h77v-78h-77v78zM44 214h77v-77h-77v77z" />
    <glyph glyph-name="l" unicode="l" 
d="M44 352h88v-88h-88v88zM308 88h88v-88h-88v88zM308 220h88v-88h-88v88zM308 352h88v-88h-88v88zM176 88h88v-88h-88v88zM176 220h88v-88h-88v88zM176 352h88v-88h-88v88zM44 88h88v-88h-88v88zM44 220h88v-88h-88v88z" />
    <glyph glyph-name="m" unicode="m" horiz-adv-x="462" 
d="M156 184l64 -58l5 4.5t7 6.5l52 49q5 -5 8 -11q11 -14 21 -28.5t22 -28.5q0 -2 1.5 -3t2.5 -2l13 -17q2 -4 4 -6l8 -11q1 -2 2 -3.5t3 -2.5q6 -8 12.5 -17t12.5 -17l25 -33v-0.5v-0.5h1v-1v0l1 -2l2 -2h-406q0 1 7.5 10.5t10.5 12.5q0 1 1.5 2.5t2.5 3.5q6 9 14 19.5
t16 20.5l20 26q1 2 2 3q2 2 4 6zM0 0v334l64 -61q2 -3 4 -4.5t5 -3.5q4 -5 11 -12t12 -10l9 -9q6 -6 13.5 -13t13.5 -13l14 -13q-1 -2 -5 -6q-1 -2 -2.5 -3.5t-1.5 -2.5q-5 -6 -12 -15.5t-11 -14.5l-23 -31q-1 -2 -2.5 -3.5t-1.5 -2.5q-5 -6 -10 -12.5t-9 -12.5q-2 -2 -4 -6
l-14 -18q-1 -2 -2.5 -3.5t-1.5 -2.5l-41 -55q-2 -2 -3 -3.5t-2 -2.5zM435 5q0 1 -2 3l-15 21q-2 1 -3 2.5t-2 3.5q-5 8 -17 24q-2 1 -3 2.5t-2 3.5l-26 35q-9 11 -18.5 24t-17.5 24l-31 41l-2.5 2.5t-1.5 3.5q1 2 4 5q2 1 5 4l1.5 1.5l2.5 2.5q5 5 11.5 10.5t11.5 11.5
l100 95l4.5 4.5t5.5 4.5q-1 -4 -0.5 -11t0.5 -11v-270q0 -7 -0.5 -21.5t-0.5 -20.5l-3 5h-0.5h-0.5zM178 185l-1 1l-32 30q-13 12 -27.5 25.5t-27.5 26.5q-1 0 -2 1t-1 2l-36 34q-6 5 -11.5 10t-10.5 11q-6 6 -13.5 12.5t-13.5 13.5h436q-3 -5 -7 -7l-3.5 -3.5l-3.5 -3.5
l-3.5 -3.5l-2.5 -2.5l-123 -116q-3 -3 -15 -14t-25.5 -23.5t-24 -22.5l-10.5 -10l-21 19q-3 2 -11 10z" />
    <glyph glyph-name="n" unicode="n" horiz-adv-x="402" 
d="M196 328q0 24 24 24t24 -24v-148q0 -24 -24 -24t-24 24v148zM283 261q-20 12 -7 33q12 19 33 7q34 -23 55 -59q19 -38 19 -78q0 -68 -47 -116q-48 -48 -116 -48t-116 48q-22 22 -35 51.5t-13 64.5q0 41 20 78q20 36 55 59q19 12 33 -7q12 -21 -7 -33q-25 -15 -39 -42
t-14 -55q0 -48 34 -82q35 -35 82 -35t82 35q34 34 34 82q0 28 -14 55q-14 26 -39 42z" />
    <glyph glyph-name="o" unicode="o" horiz-adv-x="404" 
d="M342 323q36 -32 39.5 -80t-27.5 -84q-27 -31 -66.5 -38.5t-73.5 10.5l-18 -21l-44 39l18 20q-23 31 -21 71t29 71q31 36 79 39.5t85 -27.5zM185 98l-33 -39v0l-41 -47q-14 -15 -22 -11l-30 26q-3 2 -0.5 9t8.5 14l40 47v0l34 39zM325 304q-29 24 -66.5 21.5t-61.5 -30.5
q-25 -29 -22.5 -67t31.5 -62q28 -25 66 -22.5t63 32.5q24 28 21.5 65.5t-31.5 62.5z" />
    <glyph glyph-name="p" unicode="p" horiz-adv-x="437" 
d="M374 240q-1 -1 -5 -5.5l-4 -4.5l-2 -2l-1 -1l-17 -17q-3 -4 -9 -10l-10 -10l-5 -5l-48 -50l-2 -2l-1 -1l-34 -35l-9 -9l-8 -8l-2 2l-26 28l-5 5l-7 7q-1 0 -2 1t-1 2l-5 5l-14 15q-2 2 -3 2l-21 23l-5 5l-9 10q-1 0 -2 1t-1 2l-21 22q-3 2 -5.5 4.5t-4.5 5.5l-9.5 9.5
t-9.5 10.5h98v20.5v20.5h112v-41h24h25h25.5h23.5zM164 337v15h112v-14v-1h-112zM164 295v29h112v-29h1h-111h-1h-1zM23 0v112v2h34q1 -7 2.5 -18.5t3.5 -17.5q1 -5 3.5 -19.5t3.5 -16.5h300q2 9 6.5 39t6.5 33h34v-114h-58h-127.5h-133h-75.5z" />
    <glyph glyph-name="q" unicode="q" horiz-adv-x="437" 
d="M374 192q-2 -1 -23.5 -0.5t-25.5 0.5h-25h-24v-41h-112v19v22h-98q4 4 9.5 9t9.5 11l4.5 4.5l5.5 5.5l21 22l1 1l2 2l9 10q3 1 5 5l21 22l1 1l2 2l14 15q3 1 5 5l1 0.5t2 1.5l7 8l1.5 1.5l3.5 3.5l26 27q1 2 2 3q1 -2 8 -9l9 -9l34 -35q0 -1 1 -1.5t2 -0.5l48 -50
q1 -2 2 -3t3 -2l10 -10q3 -4 9 -10l17 -18q0 -1 1 -1.5t2 -0.5q0 -2 4 -6t5 -4zM164 95h112v-2v-13h-112v15zM164 137h1h1h111h-1v-29h-112v29zM23 0v112v2h34q1 -7 2.5 -18.5t3.5 -17.5q1 -5 3.5 -19.5t3.5 -16.5h300q2 9 6.5 39t6.5 33h34v-114h-58h-127.5h-133h-75.5z
" />
    <glyph glyph-name="r" unicode="r" 
d="M220 352q72 0 124 -52t52 -124q0 -73 -52 -124.5t-124 -51.5q-73 0 -124.5 51.5t-51.5 124.5q0 72 51.5 124t124.5 52zM220 150q-45 0 -77.5 -21t-56.5 -54q27 -33 58 -50t76 -17q43 -1 73 15.5t58 47.5q-24 33 -56 56t-75 23zM220 302q-30 0 -50.5 -21t-20.5 -50
q0 -30 20.5 -50t50.5 -20q29 0 50 20t21 50q0 29 -21 50t-50 21z" />
    <glyph glyph-name="s" unicode="s" 
d="M220 352q72 0 124 -52t52 -124q0 -8 -2 -24q-12 11 -25.5 19t-28.5 8q-22 0 -40 -13.5t-30 -29.5q21 -24 54 -28.5t62 9.5v0q-19 -51 -64 -84t-102 -33q-59 0 -104.5 34t-62.5 87q27 -17 62.5 -14t59.5 26q-13 16 -31 31t-39 15q-18 0 -33 -8.5t-26 -20.5v-1q-2 18 -2 27
q0 72 51.5 124t124.5 52zM223 245q-24 0 -40.5 -17t-16.5 -40q0 -24 16.5 -40.5t40.5 -16.5q23 0 40 16.5t17 40.5q0 23 -17 40t-40 17zM223 122q-36 0 -65.5 -21.5t-47.5 -47.5q41 -46 110 -47t115 42q-20 27 -48.5 50.5t-63.5 23.5zM340 255q-15 0 -25 -10.5t-10 -24.5
q0 -15 10 -25.5t25 -10.5t25.5 10.5t10.5 25.5q0 14 -10.5 24.5t-25.5 10.5zM394 151v-2v-1v1v2zM393 146v-1.5v-1.5v1.5v1.5zM392 142v-2v-1v1v2zM392 138q-1 -1 -1 -3q0 2 1 3zM391 133q-1 0 -1 -2q0 2 1 2zM390 129q-1 -1 -1 -3q0 2 1 3zM388 125v-2v-1v1v2zM387 121
q0 -1 -0.5 -2l-0.5 -1l0.5 1t0.5 2zM105 255q-15 0 -25 -10.5t-10 -24.5q0 -15 10 -25.5t25 -10.5q14 0 24.5 10.5t10.5 25.5q0 14 -10.5 24.5t-24.5 10.5zM53 122q-1 1 -1 3q0 -2 1 -3zM51 126v1v2v-2v-1zM50 131q0 1 -1 2q1 -1 1 -2zM49 135l-0.5 1l-0.5 1l0.5 -1zM48 140
l-0.5 0.5l-0.5 0.5z" />
    <glyph glyph-name="t" unicode="t" horiz-adv-x="388" 
d="M190 352v-58q12 0 19 -1q11 0 16 -1q17 -2 32 -6q42 -11 73 -38.5t37 -77.5q3 -38 -7 -67q-12 -34 -35 -59q-7 -7 -21 -17q-26 -18 -51 -24l-15 -3q16 3 34 15q16 11 26 25q10 15 15.5 35t1.5 44q-3 20 -14 36q-15 19 -38.5 27.5t-47.5 10.5h-13h-12v-68q-2 2 -4 3
l-12.5 12.5l-12.5 12.5q-5 4 -10 8.5t-9 9.5q-2 2 -3 4q-2 0 -19.5 17.5l-17.5 17.5l-11 10q-3 2 -6.5 5.5t-4.5 5.5q-2 1 -4 3l-4 4l3 3t5 4q2 4 7 7q1 2 3 3.5t4 3.5q9 9 18.5 18t18.5 18q1 1 2.5 3t4.5 4l47 46q4 2 4 4h1z" />
    <glyph glyph-name="u" unicode="u" horiz-adv-x="386" 
d="M250 352h1q0 -1 3 -4l48 -46q1 -2 3 -4t4 -3l18 -18t19 -18q1 -2 2.5 -3.5t4.5 -3.5q1 -2 3 -3.5t4 -3.5l4 -4t4 -3l-4 -4q-1 -1 -2.5 -2l-1.5 -1l-5.5 -5.5l-5.5 -5.5l-11 -10l-18 -17.5t-19 -17.5q-2 -3 -4 -4l-9.5 -9.5l-8.5 -8.5q-6 -6 -13 -12.5t-13 -12.5l-2 -2
l-1 -1v68h-13h-12q-25 -2 -48.5 -10.5t-37.5 -27.5q-11 -15 -15 -36q-7 -45 18 -79q10 -16 26 -25q14 -12 34 -15l-15 3q-13 3 -27 9.5t-25 14.5q-5 3 -10.5 7.5t-9.5 9.5q-24 25 -35 59q-11 29 -7 67q6 50 36.5 77.5t73.5 38.5q14 4 31 6q6 1 17 1q6 1 18 1z" />
    <glyph glyph-name="v" unicode="v" horiz-adv-x="361" 
d="M265 294v8v9q0 7 1 7h42q9 0 15.5 -0.5t12.5 -4.5q6 -6 7 -12.5t1 -13.5v-233v-18v-15q-2 -16 -14 -19q-5 -2 -15 -2h-183q-20 0 -28 5q-6 3 -7 10q-2 3 -1.5 7t0.5 9v233q0 4 -0.5 17t0.5 16q1 13 14 19q5 2 15 2h8h9h16.5h16.5v-24h-41q-9 0 -11 -2q-5 -4 -5 -9v-6.5
v-6.5v-229q0 -8 1 -12q3 -6 9 -6h12h161q7 0 12 0.5t8 6.5q0 3 0.5 12t0.5 14v214q0 18 -5 22q-3 2 -12 2h-21.5h-18.5zM141 114v11h11v-11h-11zM141 215v12h11v-12h-11zM141 80v11h11v-11h-11zM141 148v11h11v-11h-1h-9h-1zM141 46v11l11 1v-7v-5h-11zM141 182v4.5v6.5h11
v-6.5v-4.5h-11zM175 181v12h124v-12h-124zM175 215v12h124v-12h-124zM175 148v11h124v-11h-124zM175 114v11h124v-11h-124zM175 81v10h123h1v-11h-124v1zM175 46v11h124v-11h-62.5h-61.5zM186 282v12v14q0 15 3 23q9 21 31 21q11 0 19.5 -7t11.5 -14t3 -12v-11v-7v-6
t-0.5 -6.5t0.5 -6.5l38 -1q3 -2 5 -4q2 -3 2 -8v-10.5v-9.5h-158v20q0 5 2 8q1 2 5 4q3 1 17.5 1h20.5z" />
    <glyph glyph-name="w" unicode="w" horiz-adv-x="369" 
d="M88 0v352h154h24h24q2 0 3 -2q1 0 3 -2l29 -29q4 -4 9 -9.5t10 -9.5q6 -6 7 -6.5t1 -4.5v-289h-264zM147 147v14h14v-14h-14zM147 234v15h14v-15h-14zM147 59v14h14v-14h-14zM147 190v15h13h1v-15h-14zM147 103v14h14v-14h-14zM176 147v14h117v-14h-117zM176 103v14h117
v-14h-117zM176 234v15h117v-15h-117zM176 59v14h117v-14h-117zM176 190v15h117v-15h-1h-115h-1zM117 30h205v30.5v32.5v186h-58v43h-147v-292z" />
    <glyph glyph-name="x" unicode="x" horiz-adv-x="369" 
d="M88 0v279v73h154v0h1h47v0h0.5h0.5h61v-61v-1.5v-0.5v0v-10v-279h-264zM322 279h-205v-249h205v30.5v32.5v186zM147 147v14h14v-14h-14zM147 234v15h14v-15h-14zM147 59v14h14v-14h-14zM147 190v15h13h1v-15h-14zM147 103v14h14v-14h-14zM176 147v14h117v-14h-117z
M176 103v14h117v-14h-117zM176 234v15h117v-15h-117zM176 59v14h117v-14h-117zM176 190v15h117v-15h-1h-115h-1z" />
    <glyph glyph-name="y" unicode="y" horiz-adv-x="369" 
d="M352 121q-2 -1 -3.5 -1.5t-2.5 -0.5q-15 -7 -26 -18q-2 -1 -4 -3l-16 -15q-3 -2 -5 -4.5t-4 -4.5l-2 -2l-5 -6l-1.5 -1.5l-0.5 -0.5l-23 -28q-9 -12 -12.5 -17.5t-11.5 -18.5q-2 1 -3 2l-16 19q-2 1 -3 2t-2 3l-5 5l-8 7q-2 2 -3 2q-9 7 -20.5 15t-21.5 13q-2 0 -4.5 1.5
t-3.5 2.5l58 33l28 -52q2 2 5 11q2 3 6 11q20 39 45 68l13 15l2 2l6 6l0.5 1t1.5 2q4 3 8 6.5t10 7.5q3 2 10 6.5t10 5.5q-1 -15 -3 -29t1 -29q1 -5 2.5 -8.5t3.5 -7.5zM251 3l7 11q3 6 8 11h10.5h11.5q13 0 17 5q2 3 1.5 9t-0.5 11v10.5v11.5l11 10l5 4.5t6 5.5v-31.5
v-31.5q0 -12 -4 -17q-6 -9 -14.5 -9h-17.5h-21.5h-19.5zM252 297v22h53q16 0 22 -15q1 -5 1 -17.5v-18.5v-37.5v-36.5q-3 -1 -6.5 -3.5t-5.5 -3.5q-3 -3 -6 -5.5t-4 -2.5v42.5v43.5v10.5v11.5q0 10 -11 10h-22.5h-20.5zM206 319q-11 -3 -9 -12q1 -11 12 -10t10 13
q-3 10 -13 9zM241 287q2 -1 13 -0.5t14 0.5q8 0 12 -3q4 -2 4 -9v-21h-152q-1 3 -0.5 8.5t0.5 10.5q0 12 7 13t17 1h9h10v12v12q0 14 4 22q7 18 28 18.5t31 -19.5q3 -6 3 -10.5v-10.5v-12v-12zM209 3h-96q-16 0 -22 11q-3 5 -3 13v16v240v8v8q1 13 14 19q4 1 14.5 1h16.5h15
h17v-22h-42q-7 0 -10 -3t-3 -11v-238v-12.5t9 -7.5q2 -1 29.5 -0.5t32.5 0.5q4 0 7 -1l3.5 -3.5t4.5 -2.5q2 -2 7 -7.5t6 -7.5z" />
    <glyph glyph-name="z" unicode="z" 
d="M141 351h173q1 0 2 -0.5t2 -0.5v2l78 -78h-2q2 -4 2 -5v-236q0 -13 -10 -23q-8 -9 -22 -9h-220h-3h-38q-2 -1 -7 -1h-25q-27 0 -27 22v122v30v22h27h25h12v123q0 13 10 22q10 10 23 10zM149 47h208v-13h-208v13zM149 72h208v-13h-208v13zM149 98h208v-13h-208v13z
M149 125h208v-13h-208v13zM149 241h201h7v-6v-89l-45 43l-30 -27l-58 56l-75 -74v97zM123 196v0v-22v-30v-122q0 -3 -2 -7h20h3h220q7 0 12 5q5 6 5 13v229h-67q-7 0 -7 7v68h-166q-9 0 -13 -6q-5 -5 -5 -12v-123z" />
    <glyph glyph-name="four" unicode="4" horiz-adv-x="462" 
d="M7 328h433v-305h-440v305h7zM301 256h87v-26h-56v-39h45v-26h-45v-69h-31v160zM190 256h84v-26h-54v-37h49v-26h-49v-46h56v-25h-86v160zM53 256h54q14 0 26 -3q10 -3 20 -14q8 -13 8 -29q0 -15 -8 -26q-9 -12 -27 -17q9 -3 19 -15l8 -13l21 -43h-35l-24 46q-7 14 -12 17
t-15 3h-5v-66h-30v160zM83 187h15q20 0 25 5q7 5 7 17q0 11 -7 16q-9 5 -22 5h-18v-43zM426 315h-413v-278h413v278z" />
    <glyph glyph-name="five" unicode="5" horiz-adv-x="462" 
d="M7 328h433v-305h-440v305h7zM258 256h50q15 0 29 -4q11 -6 17 -15q7 -10 11 -22q4 -16 4 -34q0 -21 -3 -37q-2 -16 -10 -27q-8 -13 -18 -17t-28 -4h-52v160zM288 231v-110h14q14 0 21 4q7 3 10 15q4 9 4 36q0 24 -3 35q-5 11 -11 15q-9 5 -23 5h-12zM118 256h33l20 -75
q7 -28 9 -45q2 11 4 19.5t4 14.5l22 86h32l-46 -160h-33zM71 256h31v-160h-31v160zM426 315h-412v-278h412v278z" />
    <glyph glyph-name="six" unicode="6" horiz-adv-x="462" 
d="M4 309h169v-92l-1 -1q-6 -7 -15.5 -12t-19.5 -10q-11 -5 -19 -10t-8 -8v0q0 -5 19 -14q12 -6 23.5 -11t20.5 -16v-92h-173v89l1 1q6 10 17 16.5t21 12.5q19 8 19 14v0q0 3 -8 8t-17 11q-9 4 -18 9.5t-14 11.5l-1 1v92h4zM374 229h31q8 0 18 -2q7 -4 12 -10q5 -9 5 -20
q0 -18 -10 -26t-25 -8h-11v-41h-20v107zM394 180h5q10 0 16 4q4 6 4 12q0 7 -3 10q-2 3 -6 5q-2 1 -10 1h-6v-32zM284 229h23l16 -30l16 30h23l-28 -51l30 -56h-23l-18 35l-18 -35h-24l30 56zM217 229h56v-17h-36v-25h33v-17h-33v-31h38v-17h-58v107zM8 123h157v4
q-4 12 -17 17t-23 11q-22 11 -23 20q-1 8 9 14.5t23 12.5q22 9 31 18v81h-157v-81q5 -6 12.5 -10t16.5 -8q12 -6 21 -12.5t8 -14.5q0 -7 -7 -11.5t-16 -8.5q-9 -5 -19 -11t-16 -14v-7z" />
    <glyph glyph-name="seven" unicode="7" horiz-adv-x="462" 
d="M7 328h433v-305h-440v305h7zM292 257h104v-25h-37v-135h-30v135h-37v25zM223 259q29 0 44 -20q14 -22 14 -64q0 -32 -7 -48q-6 -15 -19 -25q-15 -8 -32 -8q-16 0 -27 5q-11 6 -18 18q-7 10 -10 27q-3 16 -3 35q0 40 15 60q12 20 43 20zM197 171q0 -31 7 -40q7 -11 19 -11
q10 0 17 7t9 22q0 6 0.5 14.5t0.5 19.5q0 27 -8 39q-7 11 -19 11q-11 0 -16 -7q-8 -8 -9 -19q0 -6 -0.5 -15t-0.5 -21zM63 257h31v-135h61v-25h-92v160zM426 315h-412v-278h412v278z" />
    <glyph glyph-name="eight" unicode="8" horiz-adv-x="462" 
d="M0 35v306l10 -17q17 -32 58 -27q19 2 42 12.5t50 25.5l1 1h1q21 -2 48.5 -1.5t50.5 0.5l27 1l1 -1q42 -36 75 -40q36 -5 67 30l9 10v-302l-2 -1q-40 -26 -77 -20q-38 4 -73 38h-134q-35 -29 -70 -34q-39 -8 -81 14l-3 2v3zM281 194h26h46v-18v-72h22v-17h-22h-46h-26v17
h26v72h-26v18zM329 261q25 0 25 -25t-25 -25t-25 25t25 25zM226 324v-264h32.5h34.5l1 -1q30 -33 68 -37q34 -5 68 17v270q-32 -29 -68 -24q-35 5 -78 41l-22 -1q-9 0 -18 -0.5t-18 -0.5zM216 60v264h-28.5t-24.5 2q-27 -15 -50.5 -25.5t-43.5 -13.5q-38 -5 -59 19v-268
q36 -19 72 -12q32 5 66 33l2 2z" />
    <glyph glyph-name="nine" unicode="9" horiz-adv-x="462" 
d="M7 268h433v-184h-440v184h7zM333 224h18v-38h27v38h18v-96h-18v43h-27v-43h-18v96zM258 224h28q8 0 16 -2q6 -3 11 -9q5 -9 5 -18q0 -16 -9 -23q-10 -8 -23 -8h-9v-36h-19v96zM277 180h4q11 0 14 3q4 6 4 11q0 6 -3 9q-2 4 -5 4q-2 1 -9 1h-5v-28zM208 225q17 0 26 -12
t9 -38q0 -15 -4 -29q-5 -9 -12 -15q-10 -5 -19 -5q-11 0 -16 4q-8 3 -11 10q-5 7 -6 16q-2 14 -2 21q0 24 9 36t26 12zM192 173q0 -19 4 -24q4 -7 12 -7q6 0 10 4q5 5 5 13q0 4 0.5 9.5t0.5 11.5q0 16 -5 23t-11 7q-5 0 -10 -5q-4 -4 -5 -11q0 -3 -0.5 -8.5t-0.5 -12.5z
M95 224h21l16 -39l16 39h21l-28 -56v-40h-18v40zM44 224h18v-81h37v-15h-55v96zM426 259h-413v-167h413v167z" />
    <glyph glyph-name="colon" unicode=":" horiz-adv-x="350" 
d="M241 213v0v-151q15 -10 15 -28q0 -15 -10.5 -24.5t-23.5 -9.5q-15 0 -24.5 9.5t-9.5 24.5q0 17 14 28v91v0l-55 -86h-41v8h36l60 94v163q0 8 6 14t14 6t13 -6q6 -5 6 -14v-103l56 88h37v-9h-32zM211 183l21 32v117q0 5 -3 8t-7 3q-5 0 -8 -3q-3 -6 -3 -8v-149z" />
    <glyph glyph-name="semicolon" unicode=";" horiz-adv-x="447" 
d="M334 352h92v-173v-179v0h-412v179l56 89l52 -89l52 89l52 -89l53 89l55 -89v173z" />
    <glyph glyph-name="less" unicode="&#x3c;" horiz-adv-x="437" 
d="M207 351v-1q-30 -4 -47 -27.5t-17.5 -51t17 -51t56.5 -27.5v-10q-21 -5 -22.5 -19.5t0.5 -15.5l-12 -5q-18 27 -46.5 33.5t-53 -4t-38 -36t-1.5 -61.5l-2 -1q-18 38 -4 81t68 71q-1 38 11.5 63t30 39t34.5 19t26 4zM185 84q-4 -12 -11 -24q-21 9 -44 37t-17 75
q11 0 25 -4q-5 -33 13 -56t34 -28zM172 226q-6 2 -11.5 11.5t-2.5 8.5q14 11 50.5 18t75.5 -20q-4 -9 -14 -19q-30 20 -56.5 15.5t-41.5 -14.5zM302 168q4 3 15 3.5t9 -0.5q3 -21 -7.5 -55t-52.5 -55q-7 8 -11 22q31 16 40.5 41t6.5 44zM198 141q4 -6 16 -11.5t28 11.5
l11 -6q-15 -33 -5 -60t32.5 -41.5t51 -12.5t51.5 27l0.5 -1l0.5 -1q-5 -9 -19 -21.5t-36 -19t-50 -4t-60 25.5q-42 -28 -87.5 -25t-76.5 48l1 2q25 -27 53.5 -28t50 14t30.5 41.5t-4 55.5zM232 351q8 1 25.5 -4t35 -19t30 -39t11.5 -63q54 -28 68.5 -72.5t-3.5 -82.5l-2 1
q11 35 -3 60.5t-38.5 37t-53 6t-45.5 -32.5l-12 5q0 1 -0.5 15.5t-21.5 19.5v10q38 4 55.5 27.5t17 51t-17 51t-46.5 27.5v1z" />
  </font>
</defs>
</svg>
